<svg xmlns="http://www.w3.org/2000/svg" xml:space="preserve" style="fill-rule:evenodd;clip-rule:evenodd;stroke-linejoin:round;stroke-miterlimit:2" viewBox="0 0 60 60">
  <path d="M5173 646c-8-8-20-8-27 0l-12 11h-6c3-3 4-7 4-11 0-2-2-4-4-4h-13c-4 0-8-2-13-4-4-2-9-5-15-5-4 0-9 0-14 2-5 1-9 6-9 11h-13c-2 0-4 2-4 4v31c0 2 2 4 4 4h81c5 0 9-2 12-5l29-29v-5Zm-118 8h9v23h-9v-23Zm84 20c-2 2-4 3-7 3h-60v-30c0-2 1-4 3-5l12-1c4 0 8 2 12 4 5 2 10 5 16 5h9c-2 4-6 7-11 7h-20a4 4 0 0 0 0 8h43l2-1 14-13a11 11 0 0 1 12-2l-25 25Zm-20-124a41 41 0 0 0 0 83c23-1 41-19 41-42s-18-41-41-41Zm0 74c-18 0-33-15-33-33s15-34 33-34c19 0 33 16 33 34s-14 33-33 33Zm4-37-7-3-1-2 2-2h5a4 4 0 1 0 5-6l-4-2v-1a4 4 0 0 0-8 0v1c-4 1-7 4-7 8-1 4 0 8 3 10l10 5c2 1 2 3 2 4 0 2-2 4-4 4l-6-2a4 4 0 1 0-5 7l7 2v1a4 4 0 1 0 8 0v-1c4-2 7-6 8-10 1-6-2-11-8-13Z" style="fill:#5b329b;fill-rule:nonzero" transform="matrix(.43 0 0 .43 -2168 -236)"/>
</svg>
