<svg xmlns="http://www.w3.org/2000/svg" xml:space="preserve" style="fill-rule:evenodd;clip-rule:evenodd;stroke-linejoin:round;stroke-miterlimit:2" viewBox="0 0 60 60">
  <path d="M4504.39 1171.25v41.13h-6.54a2.8 2.8 0 0 0-2.81 2.81v11.22h-6.55a2.8 2.8 0 0 0-2.8 2.81v14.03a2.8 2.8 0 0 0 2.8 2.81h140.27a2.81 2.81 0 0 0 2.81-2.81v-14.03a2.81 2.81 0 0 0-2.81-2.81h-6.54v-11.22a2.81 2.81 0 0 0-2.81-2.81h-6.54v-41.13h6.54a2.81 2.81 0 0 0 2.81-2.81v-14.03c0-1.03-.57-1.98-1.48-2.47l-60.78-32.73a2.79 2.79 0 0 0-2.66 0l-60.79 32.73a2.8 2.8 0 0 0-1.47 2.47v14.03a2.8 2.8 0 0 0 2.81 2.81h6.54Zm121.56 60.78h-134.64v8.41h134.64v-8.41Zm-9.35-14.02h-115.94v8.4h115.94v-8.4Zm-87.89-46.76v41.13h17.76v-41.13h-17.76Zm42.08 0v41.13h17.76v-41.13h-17.76Zm-5.62 0v41.13h-13.08v-41.13h13.08Zm42.08 0v41.13h-13.08l-.01-41.13h13.09Zm-84.16 0v41.13h-13.08v-41.13h13.08Zm-22.43-5.62h115.94v-9.54l-57.97-31.21-57.97 31.21v9.54Z" style="fill:#5b329b" transform="matrix(.4113 0 0 .4113 -1844.89 -456.33)"/>
</svg>
