<?xml version="1.0" encoding="UTF-8" standalone="no"?>
<!DOCTYPE svg PUBLIC "-//W3C//DTD SVG 1.1//EN" "http://www.w3.org/Graphics/SVG/1.1/DTD/svg11.dtd">
<svg width="100%" height="100%" viewBox="0 0 60 60" version="1.1" xmlns="http://www.w3.org/2000/svg" xmlns:xlink="http://www.w3.org/1999/xlink" xml:space="preserve" xmlns:serif="http://www.serif.com/" style="fill-rule:evenodd;clip-rule:evenodd;stroke-linejoin:round;stroke-miterlimit:2;">
    <g transform="matrix(0.430171,0,0,0.430171,-2168.41,-236.407)">
        <path d="M5172.78,645.521C5165.37,638.111 5153.31,638.111 5145.9,645.521L5134.02,657.4L5128.39,657.4C5130.79,654.16 5132.21,650.151 5132.21,645.817C5132.21,643.631 5130.44,641.857 5128.25,641.857L5115.11,641.857C5110.81,641.857 5106.68,639.908 5102.32,637.845C5097.73,635.681 5093,633.443 5087.46,633.074C5082.61,632.751 5077.76,633.282 5073.02,634.65C5067.96,636.11 5064.32,640.602 5063.87,645.792L5051.12,645.792C5048.94,645.792 5047.16,647.564 5047.16,649.751L5047.16,680.744C5047.16,682.931 5048.94,684.703 5051.12,684.703L5131.94,684.703C5136.62,684.703 5141.02,682.879 5144.33,679.567L5172.78,651.12C5174.33,649.574 5174.33,647.068 5172.78,645.521ZM5055.08,653.71L5063.83,653.71L5063.83,676.785L5055.08,676.785L5055.08,653.71ZM5138.73,673.968C5136.92,675.785 5134.5,676.785 5131.94,676.785L5071.74,676.785L5071.74,646.853C5071.75,644.736 5073.18,642.846 5075.22,642.256C5079.07,641.145 5083.01,640.714 5086.93,640.975C5090.97,641.244 5094.84,643.071 5098.94,645.005C5103.9,647.351 5109.03,649.776 5115.11,649.776L5123.6,649.776C5122.03,654.057 5118.02,657.165 5113.26,657.386C5113.12,657.372 5092.81,657.364 5092.81,657.364C5090.63,657.364 5088.85,659.136 5088.85,661.323C5088.85,663.51 5090.63,665.282 5092.81,665.282L5135.66,665.318C5136.71,665.318 5137.72,664.901 5138.46,664.159L5151.5,651.12C5153.6,649.026 5156.38,647.873 5159.34,647.873C5160.93,647.873 5162.46,648.204 5163.87,648.833L5138.73,673.968ZM5119.2,549.564C5096.54,549.564 5078.11,568.147 5078.11,590.988C5078.11,613.83 5096.54,632.413 5119.2,632.413C5141.86,632.413 5160.3,613.83 5160.3,590.988C5160.3,568.147 5141.86,549.564 5119.2,549.564ZM5119.2,624.495C5100.91,624.495 5086.03,609.464 5086.03,590.988C5086.03,572.513 5100.91,557.482 5119.2,557.482C5137.5,557.482 5152.38,572.513 5152.38,590.988C5152.38,609.464 5137.5,624.495 5119.2,624.495ZM5123.43,587.183C5120.6,586.18 5117.47,584.976 5115.77,583.637C5115.48,583.417 5115.28,582.72 5115.44,581.86C5115.52,581.436 5115.89,580.019 5117.29,579.596C5119.94,578.798 5121.73,579.839 5122.38,580.323C5124.13,581.633 5126.61,581.274 5127.92,579.523C5129.23,577.771 5128.87,575.291 5127.12,573.981C5126.47,573.492 5124.9,572.463 5122.67,571.86L5122.67,571.156C5122.67,568.969 5120.89,567.197 5118.71,567.197C5116.52,567.197 5114.75,568.969 5114.75,571.156L5114.75,572.102C5111.11,573.306 5108.4,576.456 5107.66,580.394C5106.95,584.127 5108.19,587.757 5110.88,589.869C5113.48,591.909 5117.18,593.371 5120.79,594.648C5123.38,595.564 5123.46,597.538 5123.28,598.634C5122.96,600.503 5121.39,602.523 5118.68,602.541C5115.69,602.563 5114.91,602.439 5112.68,600.981C5110.85,599.783 5108.39,600.296 5107.2,602.127C5106,603.957 5106.51,606.41 5108.34,607.608C5110.78,609.201 5112.63,609.931 5114.75,610.246L5114.75,611.032C5114.75,613.218 5116.52,614.991 5118.71,614.991C5120.89,614.991 5122.67,613.218 5122.67,611.032L5122.67,609.824C5127.38,608.267 5130.39,604.08 5131.09,599.948C5132.04,594.268 5128.97,589.139 5123.43,587.183Z" style="fill:rgb(91,50,155);fill-rule:nonzero;"/>
    </g>
</svg>
