<?xml version="1.0" encoding="UTF-8" standalone="no"?>
<!DOCTYPE svg PUBLIC "-//W3C//DTD SVG 1.1//EN" "http://www.w3.org/Graphics/SVG/1.1/DTD/svg11.dtd">
<svg width="100%" height="100%" viewBox="0 0 60 60" version="1.1" xmlns="http://www.w3.org/2000/svg" xmlns:xlink="http://www.w3.org/1999/xlink" xml:space="preserve" xmlns:serif="http://www.serif.com/" style="fill-rule:evenodd;clip-rule:evenodd;stroke-linejoin:round;stroke-miterlimit:2;">
    <path d="M48.417,32.286L26.13,32.286C25.44,32.286 24.88,32.846 24.88,33.536C24.88,34.226 25.44,34.786 26.13,34.786L50.265,34.786C50.399,34.863 50.548,34.915 50.702,34.938L50.696,34.937C50.696,34.937 52.386,35.643 52.386,38.657L52.386,50.441C52.386,50.468 52.387,50.496 52.389,50.524C52.389,50.524 52.399,51.003 52.02,51.394C51.657,51.768 51.009,52.006 49.931,52.006C48.592,52.006 47.905,51.09 47.519,50.22C47.054,49.172 46.989,48.125 46.989,48.125C46.951,47.464 46.404,46.949 45.742,46.949L22.829,46.949C22.458,46.949 22.106,47.113 21.869,47.398C21.631,47.682 21.532,48.057 21.599,48.422C21.599,48.422 21.993,50.28 20.97,51.387C20.558,51.833 19.892,52.097 18.885,52.097C18.079,52.097 17.498,51.915 17.095,51.584C16.489,51.084 16.31,50.307 16.241,49.649C16.151,48.791 16.283,48.076 16.283,48.076C16.297,47.999 16.305,47.92 16.305,47.842L16.305,38.657C16.305,37.967 15.744,37.407 15.055,37.407C14.365,37.407 13.805,37.967 13.805,38.657L13.805,47.742C13.745,48.136 13.596,49.396 13.88,50.696C14.139,51.88 14.746,53.073 15.945,53.831C16.668,54.288 17.62,54.597 18.885,54.597C20.806,54.597 22.02,53.935 22.807,53.083C23.8,52.008 24.074,50.536 24.122,49.448C24.122,49.449 44.667,49.449 44.667,49.449C44.777,49.966 44.953,50.6 45.234,51.234C45.97,52.893 47.377,54.506 49.931,54.506C51.969,54.506 53.128,53.843 53.814,53.135C54.9,52.016 54.895,50.636 54.886,50.394C54.886,50.418 54.886,38.657 54.886,38.657C54.886,35.848 53.969,34.363 53.13,33.554C52.598,33.04 52.06,32.766 51.665,32.621L45.783,23.951C45.551,23.608 45.163,23.403 44.749,23.403L33.029,23.403L28.876,19.063C28.588,18.762 28.169,18.624 27.759,18.695C27.348,18.767 27.001,19.038 26.831,19.418L24.342,25L20.801,16.498C20.617,16.054 20.194,15.755 19.714,15.73C19.233,15.705 18.781,15.957 18.551,16.379C18.551,16.379 14.891,23.074 14.38,24.092C14.07,24.708 14.32,25.46 14.936,25.77C15.553,26.079 16.304,25.83 16.614,25.214C16.923,24.598 18.397,21.883 19.496,19.865C19.496,19.866 23.148,28.637 23.148,28.637C23.34,29.098 23.788,29.401 24.287,29.407C24.786,29.413 25.241,29.122 25.444,28.666L28.356,22.136L31.592,25.517C31.827,25.763 32.154,25.903 32.495,25.903L44.086,25.903L48.417,32.286ZM43.502,38.876C42.812,38.876 42.252,39.436 42.252,40.126L42.252,43.194C42.252,43.884 42.812,44.444 43.502,44.444L49.483,44.444C50.173,44.444 50.733,43.884 50.733,43.194L50.733,40.126C50.733,39.436 50.173,38.876 49.483,38.876L43.502,38.876ZM20.757,41.265C20.913,41.336 21.088,41.376 21.271,41.376L24.125,41.376L24.125,41.944L19.011,41.944C18.321,41.944 17.761,42.504 17.761,43.194C17.761,43.884 18.321,44.444 19.011,44.444L25.375,44.444C26.065,44.444 26.625,43.884 26.625,43.194L26.625,40.126C26.625,39.436 26.065,38.876 25.375,38.876L21.835,38.876L8.582,23.854C8.366,23.574 6.058,20.459 6.799,16.538C7.137,14.743 8.125,12.795 10.194,10.856C17.851,3.678 25.137,13.386 25.137,13.386C25.376,13.7 25.75,13.882 26.145,13.877C26.539,13.873 26.909,13.682 27.141,13.363C27.141,13.363 28.402,11.635 30.423,10.07C32.155,8.729 34.459,7.47 37.024,7.699C38.715,7.85 40.497,8.666 42.301,10.471C42.32,10.489 42.339,10.507 42.358,10.525C42.358,10.525 46.653,14.23 45.006,18.782C44.771,19.43 45.107,20.148 45.756,20.382C46.405,20.617 47.122,20.281 47.357,19.632C49.428,13.909 44.548,9.151 44.052,8.687C41.741,6.379 39.417,5.403 37.247,5.209C34.015,4.92 31.075,6.404 28.893,8.094C27.706,9.013 26.748,9.982 26.095,10.712C23.453,7.983 16.1,1.892 8.484,9.032C5.931,11.426 4.76,13.859 4.342,16.074C3.352,21.32 6.643,25.433 6.643,25.433C6.656,25.449 6.669,25.465 6.682,25.48L20.333,40.953C20.455,41.09 20.599,41.195 20.757,41.265ZM30,38.876C29.31,38.876 28.75,39.436 28.75,40.126L28.75,43.194C28.75,43.884 29.31,44.444 30,44.444L38.278,44.444C38.969,44.444 39.528,43.884 39.528,43.194L39.528,40.126C39.528,39.436 38.969,38.876 38.278,38.876L30,38.876ZM44.752,41.376L48.233,41.376L48.233,41.944L44.752,41.944L44.752,41.376ZM31.25,41.376L37.028,41.376L37.028,41.944L31.25,41.944L31.25,41.376Z" style="fill:rgb(91,50,155);"/>
</svg>
