<svg xmlns="http://www.w3.org/2000/svg" xml:space="preserve" style="fill-rule:evenodd;clip-rule:evenodd;stroke-linejoin:round;stroke-miterlimit:2" viewBox="0 0 60 60">
  <path d="M48.4 32.3H26.1a1.3 1.3 0 0 0 0 2.5h24.2l.4.1s1.7.7 1.7 3.8V50.5s0 .5-.4.9c-.3.4-1 .6-2 .6-1.4 0-2-1-2.5-1.8-.4-1-.5-2-.5-2 0-.7-.6-1.3-1.3-1.3H22.8a1.2 1.2 0 0 0-1.2 1.5s.4 1.9-.6 3c-.4.4-1.1.7-2.1.7-.8 0-1.4-.2-1.8-.5-.6-.5-.8-1.3-.9-2a6.1 6.1 0 0 1 .1-1.8v-9.1a1.3 1.3 0 0 0-2.5 0v9c0 .4-.2 1.7 0 3 .3 1.2 1 2.4 2.1 3.1.8.5 1.7.8 3 .8 2 0 3.1-.7 4-1.5.9-1 1.2-2.6 1.2-3.7h20.6c0 .6.3 1.2.5 1.8.8 1.7 2.2 3.3 4.7 3.3 2 0 3.2-.7 4-1.4 1-1 1-2.5 1-2.7V38.7c0-2.9-1-4.3-1.8-5.1-.5-.6-1-.8-1.4-1l-6-8.6c-.1-.4-.5-.6-1-.6H33L29 19.1a1.3 1.3 0 0 0-2 .3L24.2 25l-3.5-8.5a1.2 1.2 0 0 0-2.2-.1L14.4 24a1.3 1.3 0 0 0 2.2 1.1l2.9-5.3 3.6 8.7a1.3 1.3 0 0 0 2.3 0l3-6.5 3.2 3.4c.2.3.6.4.9.4H44l4.3 6.4Zm-4.9 6.6c-.7 0-1.2.5-1.2 1.2v3c0 .8.5 1.3 1.2 1.3h6c.7 0 1.2-.5 1.2-1.2v-3c0-.8-.5-1.3-1.2-1.3h-6Zm-22.7 2.4H24v.6h-5a1.3 1.3 0 0 0 0 2.5h6.3c.7 0 1.2-.5 1.2-1.2v-3c0-.8-.5-1.3-1.2-1.3h-3.6l-13.2-15a9.8 9.8 0 0 1-1.8-7.4c.3-1.8 1.3-3.7 3.4-5.6 7.7-7.2 15 2.5 15 2.5a1.2 1.2 0 0 0 2 0s1.2-1.8 3.2-3.3c1.8-1.4 4-2.6 6.6-2.4 1.7.1 3.5 1 5.3 2.8 0 0 4.4 3.7 2.7 8.3a1.2 1.2 0 1 0 2.4.8c2-5.7-2.9-10.4-3.3-11a11 11 0 0 0-6.9-3.4C34 5 31.1 6.4 29 8.1c-1.2 1-2.2 1.9-2.8 2.6C23.5 8 16 2 8.5 9a12.9 12.9 0 0 0-4.2 7 12.5 12.5 0 0 0 2.4 9.5L20.3 41c.2 0 .3.2.5.3Zm9.2-2.4c-.7 0-1.3.5-1.3 1.2v3c0 .8.6 1.3 1.3 1.3h8.3c.7 0 1.2-.5 1.2-1.2v-3c0-.8-.5-1.3-1.2-1.3H30Zm14.8 2.5h3.4v.5h-3.4v-.5Zm-13.5 0H37v.5h-5.8v-.5Z" style="fill:#5b329b"/>
</svg>
