<svg xmlns="http://www.w3.org/2000/svg" xml:space="preserve" viewBox="0 0 2132 1081">
  <path d="M159.2 105.5c174.3 110 256.5 213.9 227.6 321.8C355.8 543 221.8 571 0 538.8l17.7-121.9c164.1 23.9 242.4 7.6 250.2-21.4 9.8-36.8-42-102.3-174.4-186l65.7-104ZM463.4 0l116.9 38.6C528.3 196 530.8 276 558 288.7c34.5 16.1 108-23.5 213.4-139.5l91 82.9C723.9 384.6 607.3 447.5 506 400.3 397.4 349.7 393 212.8 463.4 0Zm66 521C580 412.2 717 408 929.7 478.2l-38.6 117c-157.5-52-237.4-49.6-250-22.4-16.2 34.6 23.5 108 139.4 213.4l-82.8 91.1C545.2 738.7 482.2 622.2 529.4 521Z" style="fill:#5E5E5D;fill-rule:nonzero"/>
    <circle cx="332.7" cy="766.3" r="110.8" style="fill:#5E5E5D"/>
    <path d="M1654.7 127.1c263 0 476.5 213.5 476.5 476.5s-213.5 476.5-476.5 476.5a476.7 476.7 0 0 1-476.5-476.5c0-263 213.5-476.5 476.5-476.5Zm0 50.7A426 426 0 0 0 1229 603.6a426 426 0 0 0 425.8 425.8 426 426 0 0 0 425.8-425.8 426 426 0 0 0-425.8-425.8Z" style="fill:#5E5E5D;"/>
</svg>
